<?xml version="1.0" encoding="UTF-8" standalone="no"?>
<svg
   xmlns:dc="http://purl.org/dc/elements/1.1/"
   xmlns:cc="http://creativecommons.org/ns#"
   xmlns:rdf="http://www.w3.org/1999/02/22-rdf-syntax-ns#"
   xmlns:svg="http://www.w3.org/2000/svg"
   xmlns="http://www.w3.org/2000/svg"
   xmlns:sodipodi="http://sodipodi.sourceforge.net/DTD/sodipodi-0.dtd"
   xmlns:inkscape="http://www.inkscape.org/namespaces/inkscape"
   version="1.1"
   viewBox="0 -256 500 629"
   id="svg2"
   inkscape:version="0.91 r13725"
   sodipodi:docname="User_font_awesome.svg"
   width="500"
   height="629">
  <metadata
     id="metadata12">
    <rdf:RDF>
      <cc:Work
         rdf:about="">
        <dc:format>image/svg+xml</dc:format>
        <dc:type
           rdf:resource="http://purl.org/dc/dcmitype/StillImage" />
        <dc:title></dc:title>
      </cc:Work>
    </rdf:RDF>
  </metadata>
  <defs
     id="defs10" />
  <sodipodi:namedview
     pagecolor="#ffffff"
     bordercolor="#666666"
     borderopacity="1"
     objecttolerance="10"
     gridtolerance="10"
     guidetolerance="10"
     inkscape:pageopacity="0"
     inkscape:pageshadow="2"
     inkscape:window-width="1600"
     inkscape:window-height="837"
     id="namedview8"
     showgrid="false"
     inkscape:zoom="0.7449875"
     inkscape:cx="153.2578"
     inkscape:cy="273.48571"
     inkscape:window-x="-8"
     inkscape:window-y="-8"
     inkscape:window-maximized="1"
     inkscape:current-layer="svg2" />
  <rect
     style="opacity:1;fill:#c4c4c4;fill-opacity:1;stroke:#ffffff;stroke-width:1.20000005;stroke-linecap:round;stroke-linejoin:miter;stroke-miterlimit:4;stroke-dasharray:none;stroke-dashoffset:0;stroke-opacity:1"
     id="rect4148"
     width="610.74847"
     height="707.39441"
     x="-24.16148"
     y="-276.67532" />
  <g
     transform="matrix(0.32274011,0,0,-0.32274011,22.223661,266.38158)"
     id="g4"
     style="stroke:#ffffff;stroke-opacity:1;fill:#ffffff;fill-opacity:1">
    <path
       d="m 1408,131 q 0,-120 -73,-189.5 -73,-69.5 -194,-69.5 l -874,0 Q 146,-128 73,-58.5 0,11 0,131 0,184 3.5,234.5 7,285 17.5,343.5 28,402 44,452 q 16,50 43,97.5 27,47.5 62,81 35,33.5 85.5,53.5 50.5,20 111.5,20 9,0 42,-21.5 33,-21.5 74.5,-48 41.5,-26.5 108,-48 Q 637,565 704,565 q 67,0 133.5,21.5 66.5,21.5 108,48 41.5,26.5 74.5,48 33,21.5 42,21.5 61,0 111.5,-20 50.5,-20 85.5,-53.5 35,-33.5 62,-81 27,-47.5 43,-97.5 16,-50 26.5,-108.5 10.5,-58.5 14,-109 Q 1408,184 1408,131 Z m -320,893 Q 1088,865 975.5,752.5 863,640 704,640 545,640 432.5,752.5 320,865 320,1024 320,1183 432.5,1295.5 545,1408 704,1408 863,1408 975.5,1295.5 1088,1183 1088,1024 Z"
       id="path6"
       inkscape:connector-curvature="0"
       style="stroke:#ffffff;stroke-opacity:1;fill:#ffffff;fill-opacity:1" />
  </g>
</svg>
